<svg xmlns="http://www.w3.org/2000/svg" viewBox="0 0 309.63 349.86"><defs><style>.cls-1{fill:#fff;}</style></defs><title>Asset 6</title><g id="Layer_2" data-name="Layer 2"><g id="Layer_1-2" data-name="Layer 1"><g id="Layer_2-2" data-name="Layer 2"><g id="Layer_3" data-name="Layer 3"><path class="cls-1" d="M295.89,58.8,165.78,2.49A31.61,31.61,0,0,0,141,2.56L13.55,58.8C5.2,62.49,0,69.58,0,77.28V272.51c0,7.75,5.29,14.88,13.74,18.54l130.12,56.32a31.63,31.63,0,0,0,24.76-.08l127.46-56.24c8.36-3.69,13.55-10.78,13.55-18.48V77.35C309.63,69.59,304.35,62.46,295.89,58.8ZM196,137.12c5.83,4.39,3.5,10-1.59,8.91-7.08-1.48-29.68-1.49-35.4,7.52-2.78,4.37-4.13,6.57-7.84-.21-4.72-8.62-21.94-11.76-31.69-8.37-8,2.79-7.39-6.26-3.08-9C140.69,120.57,176,122.08,196,137.12ZM88.88,93.64c9.45-6.34,25-8.17,31.15-6.43,5.08,1.45,8.36,4,7.61,10.75-.49,4.43-2.53,7.59-5.57,11.79-2.78,3.84-7,5.73-5,1.43,1.7-3.67,2.28-7.91.84-9.45-5.2-5.56-22.06-5.93-30.37-2.27C79,103.23,75.67,102.51,88.88,93.64Zm135.72,91c-1.55,7.13-14.94,17.35-16.4,18.81s-4.08,5.84-5,12.25-.88,13.71-1.75,17.21-2.16,9.39-6.52,13.81c-14,14.19-20.61,16.14-31.5,22.94-1.58,1-6.76,6.11-8.94,8.36-6,6.23-3.7,16.92-7.39,3.7-1.5-5.37-10.09-10.18,4.08-12.45,4.86-.77,18.44-7.39,26.06-13.41,8.36-6.61,17.5-12.25,15.46-35.2-.61-6.78-6.29-13.34-9.44-15.75-15-11.47-45.5-11.67-62-1.46-6.55,4-10.76,7.72-9.62,13.42,1.46,7.29,3.21,16.43,6.12,20.71,3.54,5.18,16.92,17.3,27.62,18.47,2.92.32,5.36,1.31,1,1.75-2,.2-7.63-1-9.53-1.75a50.19,50.19,0,0,1-7.19-3.3c-3.61-2.41-10.93-8.59-13.42-10.7s-4.86-6.22-6.22-11.08c-2.18-7.77-9-22.75-13.81-27.42-1.94-1.86-9.92-12.25-11.47-17.7-1.38-4.8-2.34-17.3,2.14-4.86,1.67,4.67,4.49,8,9.53,13.23,5.83,6,14.48,6.41,20.61,4.08s22.36-12.54,26.44-15.17,6.56-3.73,8.56-7a17,17,0,0,0,2.17-8.67c.14-4.61,2.12-3.31,2.24-.24s1.14,7.73,2.83,9.91a30,30,0,0,0,7.11,6.18c2.36,1.53,19.33,14.32,21.66,16.07s5,2.6,10.79.87c7.78-2.33,21.6-14.07,23.92-20.61C228.23,164.27,225.57,180.17,224.6,184.63Zm-3-84.36C211.51,97,199.75,95,194.78,98.16c-4.1,2.63-6.06,8.59-4.78,13.85s-.21,3.86-2,2a32.29,32.29,0,0,1-5.69-11.17c-1.27-6.52.94-12.47,6.41-14.66,6.72-2.68,21-3.15,37.39,9.46C231.93,102.06,231.55,103.52,221.63,100.27Z"/></g></g></g></g></svg>