<svg xmlns="http://www.w3.org/2000/svg" viewBox="0 0 41.38 55.51"><defs><style>.cls-1{fill:#262361;}</style></defs><title>blueLion</title><g id="Layer_2" data-name="Layer 2"><g id="Capa_1" data-name="Capa 1"><path class="cls-1" d="M40.37,14.72c.89.15,1.31-1,.77-1.93a17.29,17.29,0,0,0-2.31-3.11c-.75-.81-1.37-.49-1.71.56A6.61,6.61,0,0,1,34,13.92l-.3.18c-.17.1-.95-.44-1.75-1.21l-.44-.42c-.8-.77-1.31-1.53-1.14-1.72l.31-.33a1.9,1.9,0,0,0,.27-.47c.11-.28-.11-.5-.37-.38a1.75,1.75,0,0,0-.44.27l-.34.31a.47.47,0,0,1-.65,0l-.32-.32L27.52,8.48c-.71-.74-1.2-1.47-1.1-1.64l.18-.3a6.19,6.19,0,0,1,5.6-3.17,8.9,8.9,0,0,1,1.44.12c.79.13.63-.13-.41-.49a13.18,13.18,0,0,0-4.52-.7c-1.1,0-1.42-.25-1-1S27.31-.13,26.22,0A11.74,11.74,0,0,0,22.3,1.3a3.48,3.48,0,0,1-3.23,0A11.61,11.61,0,0,0,15.16,0c-1.09-.16-2,.56-1.51,1.29s.14,1-1,1a13.45,13.45,0,0,0-3.82.48c-1.06.3-1.57.66-1.19.63l.68,0a6.19,6.19,0,0,1,5.59,3.17l.18.3c.1.17-.44.95-1.2,1.75L12.48,9c-.76.8-1.53,1.3-1.72,1.12A3.3,3.3,0,0,0,10,9.57c-.26-.11-.48.11-.37.38a3.27,3.27,0,0,0,.58.8c.17.19-.34,1-1.14,1.72l-.44.42c-.8.77-1.58,1.31-1.75,1.21l-.3-.18A6.89,6.89,0,0,1,3.7,11c-.47-1-1.18-1.29-1.88-.44A16.09,16.09,0,0,0,.24,12.78c-.54,1-.11,2.08.77,1.93S2.2,15,1.89,16a29.4,29.4,0,0,0-1,12.59,1.26,1.26,0,0,0,2,1c.82-.65,1-.59.88.51-.17,2.53.09,7.49,3,14.81.41,1,1.08,1.2,1.38.38s.92-.75,1.56.15a36.39,36.39,0,0,0,5.64,6.15c.83.72,1.81.68,1.87-.1s.32-.6.92.33A16.74,16.74,0,0,0,21,55.14c.82.74,1.77.32,2.33-.63a8.27,8.27,0,0,1,3.6-3.22c2.4-1.17,4.06-3.85,5-5.68.49-1,.95-1.14,1.25-.32s1,.65,1.38-.37c2.94-7.32,3.19-12.27,3-14.81-.07-1.1.06-1.17.88-.51a1.26,1.26,0,0,0,2-1A29.41,29.41,0,0,0,39.5,16C39.18,15,39.48,14.57,40.37,14.72Zm-8.31,9.09a11.25,11.25,0,0,1-2,3,2.56,2.56,0,0,0-.72,2.81,11.33,11.33,0,0,1,.56,3.89,9.48,9.48,0,0,1-19,0,11.64,11.64,0,0,1,.51-3.85,2.52,2.52,0,0,0-.77-2.79,10.74,10.74,0,0,1-2.11-3.08,8.17,8.17,0,0,1-.72-5.69,6.38,6.38,0,0,1,3.26-4.23,6.09,6.09,0,0,1,2.81-.67,7.4,7.4,0,0,1,5.16,2.24,1.6,1.6,0,0,0,2.48,0,7.4,7.4,0,0,1,5.16-2.24,6.09,6.09,0,0,1,2.81.67,6.38,6.38,0,0,1,3.26,4.23A8.2,8.2,0,0,1,32.06,23.81Z"/><path class="cls-1" d="M6.24,12.58a1.25,1.25,0,0,0,1.55-.14l.72-.69a1.49,1.49,0,0,0,.23-1.56,2.81,2.81,0,0,1-.15-.62,1,1,0,0,1,1.05-1,2.67,2.67,0,0,1,.6.15,1.46,1.46,0,0,0,1.55-.21l.69-.72a1.22,1.22,0,0,0,.12-1.54c-2.06-2.49-5.16-2-6.7-1.51A2.41,2.41,0,0,0,4.57,6,5.51,5.51,0,0,0,6.24,12.58Z"/><path class="cls-1" d="M28,6.21a1.22,1.22,0,0,0,.12,1.54l.69.72a1.46,1.46,0,0,0,1.55.21,2.71,2.71,0,0,1,.6-.15,1,1,0,0,1,1.05,1,2.7,2.7,0,0,1-.15.62,1.5,1.5,0,0,0,.23,1.56l.72.69a1.25,1.25,0,0,0,1.55.14A5.51,5.51,0,0,0,36.06,6,2.4,2.4,0,0,0,34.71,4.7C33.17,4.23,30.07,3.72,28,6.21Z"/><path class="cls-1" d="M28.92,15.07a4.79,4.79,0,0,0-2.21-.53,6.47,6.47,0,0,0-5.55,3.68c-.08.16-.16.32-.24.51a.66.66,0,0,1-1.22,0c-.08-.19-.16-.35-.24-.51a6.47,6.47,0,0,0-5.55-3.68,4.8,4.8,0,0,0-2.21.53,5.07,5.07,0,0,0-2.58,3.38,6.83,6.83,0,0,0,.61,4.76c1.16,2.27,2.1,3.46,4,3.65A.66.66,0,0,1,14.08,28c-1.52,1.38-1.83,3.2-1.83,5.52a8.15,8.15,0,1,0,16.31,0c0-2-.23-4-1.88-5.53A.66.66,0,0,1,27,26.84c1.79-.23,2.67-1.35,3.84-3.64a6.84,6.84,0,0,0,.61-4.76A5.08,5.08,0,0,0,28.92,15.07ZM13.81,21.62A1.38,1.38,0,1,1,15.19,23,1.37,1.37,0,0,1,13.81,21.62ZM23,32.84a1.53,1.53,0,0,1-.41-.06.75.75,0,0,0-.66.11l-.31.24a1.92,1.92,0,0,0-.76,1.38v1.85c0,1,.29,1.82.65,1.75a5.45,5.45,0,0,0,.63-.16.53.53,0,0,1,.33,1A6.94,6.94,0,0,1,18,38.88a.53.53,0,1,1,.36-1,5.73,5.73,0,0,0,.74.21c.41.09.76-.72.76-1.75V34.49A1.73,1.73,0,0,0,19,33.18L18.82,33a1.22,1.22,0,0,1-.21-.19.57.57,0,0,0-.55-.06,1.55,1.55,0,0,1-2-1.5c0-.75.41-1.23,1.29-1.53a9.63,9.63,0,0,1,5.74,0c1,.25,1.43.76,1.43,1.55A1.56,1.56,0,0,1,23,32.84Zm2-10a1.38,1.38,0,1,1,1.38-1.37A1.37,1.37,0,0,1,25,22.83Z"/></g></g></svg>