<svg xmlns="http://www.w3.org/2000/svg" viewBox="0 0 41.35 40.25"><defs><style>.cls-1{fill:#fff;}.cls-2{fill:#262361;}</style></defs><title>lionBanner</title><g id="Layer_2" data-name="Layer 2"><g id="Layer_2-2" data-name="Layer 2"><polygon class="cls-1" points="0 0 0 28.31 20.68 40.25 41.35 28.31 41.35 0 0 0"/></g><g id="Capa_1" data-name="Capa 1"><path class="cls-2" d="M31.33,11.71c.47.08.7-.51.41-1A9.19,9.19,0,0,0,30.51,9c-.4-.43-.73-.26-.91.3a3.51,3.51,0,0,1-1.67,2l-.16.09c-.09.05-.5-.23-.93-.64l-.23-.22c-.42-.41-.69-.82-.61-.91l.16-.18a1,1,0,0,0,.14-.25c.06-.15-.06-.26-.2-.2a.93.93,0,0,0-.24.15l-.18.16a.25.25,0,0,1-.35,0l-.17-.17-.68-.71c-.38-.39-.64-.78-.59-.87l.1-.16a3.29,3.29,0,0,1,3-1.69,4.73,4.73,0,0,1,.76.06c.42.07.33-.07-.22-.26a7,7,0,0,0-2.4-.37c-.59,0-.76-.13-.51-.52s-.22-.77-.8-.68a6.24,6.24,0,0,0-2.08.68,1.85,1.85,0,0,1-1.72,0,6.17,6.17,0,0,0-2.07-.68c-.58-.09-1,.3-.8.68s.07.53-.51.52a7.15,7.15,0,0,0-2,.26c-.56.16-.83.35-.63.33h.36a3.29,3.29,0,0,1,3,1.69l.1.16c.05.09-.23.5-.64.93l-.23.24c-.41.42-.82.69-.91.59A1.75,1.75,0,0,0,15.18,9c-.14-.06-.26.06-.2.2a1.74,1.74,0,0,0,.31.43c.09.1-.18.51-.61.91l-.23.22c-.42.41-.84.69-.93.64l-.16-.09A3.66,3.66,0,0,1,11.85,9.7c-.25-.53-.63-.68-1-.23a8.55,8.55,0,0,0-.84,1.2c-.29.51-.06,1.11.41,1s.63.14.47.7a15.62,15.62,0,0,0-.52,6.69.67.67,0,0,0,1.08.51c.43-.35.51-.31.47.27a18.25,18.25,0,0,0,1.61,7.87c.22.54.57.64.73.2s.49-.4.83.08a19.34,19.34,0,0,0,3,3.27c.44.39,1,.36,1-.06s.17-.32.49.17a8.89,8.89,0,0,0,1.49,1.77c.44.39.94.17,1.24-.33a4.4,4.4,0,0,1,1.91-1.71,6.58,6.58,0,0,0,2.64-3c.26-.53.5-.61.66-.17s.51.34.73-.2a18.25,18.25,0,0,0,1.61-7.87c0-.59,0-.62.47-.27a.67.67,0,0,0,1.08-.51,15.62,15.62,0,0,0-.52-6.69C30.7,11.84,30.86,11.62,31.33,11.71Zm-4.41,4.83a6,6,0,0,1-1.07,1.6,1.36,1.36,0,0,0-.38,1.49,6,6,0,0,1,.3,2.07,5,5,0,0,1-10.07,0,6.19,6.19,0,0,1,.27-2,1.34,1.34,0,0,0-.41-1.48,5.71,5.71,0,0,1-1.12-1.63,4.34,4.34,0,0,1-.38-3,3.39,3.39,0,0,1,1.73-2.25,3.23,3.23,0,0,1,1.49-.36A3.93,3.93,0,0,1,20,12.1a.85.85,0,0,0,1.32,0,3.93,3.93,0,0,1,2.74-1.19,3.24,3.24,0,0,1,1.49.36,3.39,3.39,0,0,1,1.73,2.25A4.36,4.36,0,0,1,26.92,16.54Z"/><path class="cls-2" d="M13.2,10.57A.67.67,0,0,0,14,10.5l.38-.37a.79.79,0,0,0,.12-.83A1.49,1.49,0,0,1,14.45,9,.54.54,0,0,1,15,8.42a1.42,1.42,0,0,1,.32.08.77.77,0,0,0,.82-.11L16.52,8a.65.65,0,0,0,.06-.82A3.25,3.25,0,0,0,13,6.38a1.28,1.28,0,0,0-.72.67A2.93,2.93,0,0,0,13.2,10.57Z"/><path class="cls-2" d="M24.77,7.18a.65.65,0,0,0,.06.82l.37.38A.77.77,0,0,0,26,8.5a1.44,1.44,0,0,1,.32-.08A.54.54,0,0,1,26.9,9a1.44,1.44,0,0,1-.08.33.79.79,0,0,0,.12.83l.38.37a.67.67,0,0,0,.82.07A2.93,2.93,0,0,0,29,7a1.27,1.27,0,0,0-.72-.67A3.25,3.25,0,0,0,24.77,7.18Z"/><path class="cls-2" d="M25.25,11.89a2.54,2.54,0,0,0-1.17-.28,3.44,3.44,0,0,0-2.95,2l-.13.27a.35.35,0,0,1-.65,0l-.13-.27a3.44,3.44,0,0,0-2.95-2,2.55,2.55,0,0,0-1.17.28,2.69,2.69,0,0,0-1.37,1.79,3.63,3.63,0,0,0,.33,2.53c.62,1.21,1.11,1.84,2.1,1.94a.35.35,0,0,1,.2.61,3.61,3.61,0,0,0-1,2.93,4.33,4.33,0,1,0,8.66,0,3.67,3.67,0,0,0-1-2.94.35.35,0,0,1,.19-.61c1-.12,1.42-.72,2-1.93a3.63,3.63,0,0,0,.33-2.53A2.7,2.7,0,0,0,25.25,11.89Zm-8,3.48a.73.73,0,1,1,.73.73A.73.73,0,0,1,17.22,15.37Zm4.88,6a.82.82,0,0,1-.22,0,.4.4,0,0,0-.35.06l-.16.13a1,1,0,0,0-.4.73v1c0,.54.16,1,.34.93l.33-.09a.28.28,0,0,1,.17.54,3.69,3.69,0,0,1-2.38,0,.28.28,0,1,1,.19-.53l.39.11c.22,0,.4-.38.4-.93v-1a.92.92,0,0,0-.42-.7l-.12-.08-.11-.1a.3.3,0,0,0-.29,0,.83.83,0,0,1-1-.8c0-.4.22-.65.69-.81a5.11,5.11,0,0,1,3.05,0c.51.13.76.4.76.82A.83.83,0,0,1,22.1,21.33ZM23.18,16a.73.73,0,1,1,.73-.73A.73.73,0,0,1,23.18,16Z"/></g></g></svg>