<?xml version="1.0" encoding="utf-8"?>
<!-- Generator: Adobe Illustrator 21.0.0, SVG Export Plug-In . SVG Version: 6.00 Build 0)  -->
<svg version="1.1" xmlns="http://www.w3.org/2000/svg" xmlns:xlink="http://www.w3.org/1999/xlink" x="0px" y="0px"
	 viewBox="0 0 55.5 55.5" style="enable-background:new 0 0 55.5 55.5;" xml:space="preserve">
<style type="text/css">
	.st0{fill:#FFFFFF;}
	.st1{fill:#262361;}
</style>
<g id="Layer_2">
	<polygon class="st0" points="6.9,9.1 6.9,37.4 27.6,49.4 48.2,37.4 48.2,9.1 	"/>
</g>
<g id="Capa_1">
	<g>
		<g>
			<path class="st1" d="M38.2,20.8c0.5,0.1,0.7-0.5,0.4-1c-0.3-0.6-0.8-1.2-1.2-1.7c-0.4-0.4-0.7-0.3-0.9,0.3
				c-0.2,0.7-0.7,1.4-1.7,2c0,0-0.1,0-0.2,0.1c-0.1,0.1-0.5-0.2-0.9-0.6l-0.2-0.2c-0.4-0.4-0.7-0.8-0.6-0.9l0.2-0.2
				c0,0,0.1-0.1,0.1-0.2c0.1-0.1-0.1-0.3-0.2-0.2c-0.1,0.1-0.2,0.1-0.2,0.1c0,0-0.1,0.1-0.2,0.2c-0.1,0.1-0.3,0.1-0.3,0l-0.2-0.2
				c0,0-0.3-0.3-0.7-0.7c-0.4-0.4-0.6-0.8-0.6-0.9l0.1-0.2c0.7-1.1,1.7-1.7,3-1.7c0.3,0,0.5,0,0.8,0.1c0.4,0.1,0.3-0.1-0.2-0.3
				c-0.9-0.3-1.8-0.4-2.4-0.4c-0.6,0-0.8-0.1-0.5-0.5c0.2-0.4-0.2-0.8-0.8-0.7c-0.9,0.1-1.6,0.4-2.1,0.7c-0.5,0.3-1.2,0.3-1.7,0
				c-0.5-0.3-1.2-0.5-2.1-0.7c-0.6-0.1-1,0.3-0.8,0.7s0.1,0.5-0.5,0.5c-0.6,0-1.3,0-2,0.3c-0.6,0.2-0.8,0.3-0.6,0.3
				c0.1,0,0.2,0,0.4,0c1.3,0,2.3,0.6,3,1.7c0,0,0,0.1,0.1,0.2c0.1,0.1-0.2,0.5-0.6,0.9l-0.2,0.2c-0.4,0.4-0.8,0.7-0.9,0.6
				c-0.1-0.1-0.3-0.3-0.4-0.3c-0.1-0.1-0.3,0.1-0.2,0.2c0.1,0.1,0.2,0.3,0.3,0.4c0.1,0.1-0.2,0.5-0.6,0.9l-0.2,0.2
				c-0.4,0.4-0.8,0.7-0.9,0.6l-0.2-0.1c-0.8-0.5-1.2-1-1.5-1.6c-0.3-0.5-0.6-0.7-1-0.2c-0.3,0.4-0.6,0.8-0.8,1.2
				c-0.3,0.5-0.1,1.1,0.4,1c0.5-0.1,0.6,0.1,0.5,0.7c-0.4,1.4-1,4-0.5,6.7c0.1,0.6,0.6,0.9,1.1,0.5c0.4-0.3,0.5-0.3,0.5,0.3
				c-0.1,1.3,0,4,1.6,7.9c0.2,0.5,0.6,0.6,0.7,0.2c0.2-0.4,0.5-0.4,0.8,0.1c0.6,0.8,1.6,2,3,3.3c0.4,0.4,1,0.4,1-0.1
				c0-0.4,0.2-0.3,0.5,0.2c0.3,0.5,0.8,1.2,1.5,1.8c0.4,0.4,0.9,0.2,1.2-0.3c0.3-0.5,0.9-1.2,1.9-1.7c1.3-0.6,2.2-2,2.6-3
				c0.3-0.5,0.5-0.6,0.7-0.2c0.2,0.4,0.5,0.3,0.7-0.2c1.6-3.9,1.7-6.5,1.6-7.9c0-0.6,0-0.6,0.5-0.3c0.4,0.3,1,0.1,1.1-0.5
				c0.5-2.7-0.1-5.3-0.5-6.7C37.6,21,37.7,20.7,38.2,20.8z M33.8,25.7c-0.3,0.6-0.6,1.2-1.1,1.6c-0.4,0.4-0.6,0.9-0.4,1.5
				c0.2,0.7,0.3,1.4,0.3,2.1c0,2.8-2.3,5-5,5c-2.8,0-5-2.3-5-5c0-0.7,0-1.4,0.3-2c0.2-0.6,0-1.1-0.4-1.5c-0.5-0.4-0.8-1-1.1-1.6
				c-0.5-1-0.6-2-0.4-3c0.3-1,0.9-1.8,1.7-2.2c0.5-0.2,1-0.4,1.5-0.4c1,0,2,0.4,2.7,1.2c0.4,0.4,0.9,0.4,1.3,0C29,20.5,30,20,31,20
				c0.5,0,1,0.1,1.5,0.4c0.9,0.4,1.5,1.2,1.7,2.2C34.4,23.6,34.3,24.7,33.8,25.7z"/>
			<path class="st1" d="M20.1,19.7c0.2,0.2,0.6,0.1,0.8-0.1l0.4-0.4c0.2-0.2,0.2-0.6,0.1-0.8c0-0.1-0.1-0.2-0.1-0.3
				c0-0.3,0.3-0.6,0.6-0.6c0.1,0,0.2,0,0.3,0.1c0.3,0.1,0.6,0.1,0.8-0.1l0.4-0.4c0.2-0.2,0.3-0.6,0.1-0.8c-1.1-1.3-2.7-1.1-3.6-0.8
				c-0.3,0.1-0.6,0.4-0.7,0.7C18.9,17,18.6,18.5,20.1,19.7z"/>
			<path class="st1" d="M31.6,16.3c-0.2,0.2-0.1,0.6,0.1,0.8l0.4,0.4c0.2,0.2,0.5,0.2,0.8,0.1c0.1,0,0.2-0.1,0.3-0.1
				c0.3,0,0.6,0.3,0.6,0.6c0,0.1,0,0.2-0.1,0.3c-0.1,0.3-0.1,0.6,0.1,0.8l0.4,0.4c0.2,0.2,0.6,0.3,0.8,0.1c1.5-1.2,1.2-2.7,0.9-3.5
				c-0.1-0.3-0.4-0.6-0.7-0.7C34.4,15.3,32.7,15,31.6,16.3z"/>
			<path class="st1" d="M32.1,21c-0.4-0.2-0.8-0.3-1.2-0.3c-1.2,0-2.3,0.8-2.9,2c0,0.1-0.1,0.2-0.1,0.3c-0.1,0.1-0.2,0.2-0.3,0.2
				c-0.1,0-0.3-0.1-0.3-0.2c0-0.1-0.1-0.2-0.1-0.3c-0.6-1.2-1.8-2-2.9-2c-0.4,0-0.8,0.1-1.2,0.3c-0.7,0.4-1.2,1-1.4,1.8
				c-0.2,0.8-0.1,1.7,0.3,2.5c0.6,1.2,1.1,1.8,2.1,1.9c0.1,0,0.3,0.1,0.3,0.2c0,0.1,0,0.3-0.1,0.4c-0.8,0.7-1,1.7-1,2.9
				c0,2.4,1.9,4.3,4.3,4.3c2.4,0,4.3-1.9,4.3-4.3c0-1.1-0.1-2.2-1-2.9c-0.1-0.1-0.1-0.2-0.1-0.4c0-0.1,0.2-0.2,0.3-0.2
				c1-0.1,1.4-0.7,2-1.9c0.4-0.8,0.5-1.7,0.3-2.5C33.3,22,32.8,21.4,32.1,21z M24.1,24.5c0-0.4,0.3-0.7,0.7-0.7
				c0.4,0,0.7,0.3,0.7,0.7c0,0.4-0.3,0.7-0.7,0.7C24.4,25.2,24.1,24.9,24.1,24.5z M29,30.5c-0.1,0-0.1,0-0.2,0c-0.1,0-0.3,0-0.3,0.1
				c0,0-0.1,0.1-0.2,0.1c-0.2,0.2-0.4,0.5-0.4,0.7c0,0,0,0.4,0,1c0,0.5,0.2,1,0.3,0.9c0.1,0,0.2-0.1,0.3-0.1c0.1,0,0.3,0,0.4,0.2
				c0,0.1,0,0.3-0.2,0.4c-0.4,0.1-0.7,0.2-1.1,0.2c-0.4,0-0.8-0.1-1.2-0.2c-0.1-0.1-0.2-0.2-0.2-0.4c0.1-0.1,0.2-0.2,0.4-0.2
				c0.1,0,0.3,0.1,0.4,0.1c0.2,0,0.4-0.4,0.4-0.9v-1c0-0.2-0.2-0.6-0.4-0.7c0,0-0.1-0.1-0.1-0.1c0,0-0.1-0.1-0.1-0.1
				c-0.1-0.1-0.2-0.1-0.3,0c-0.1,0-0.1,0-0.2,0c-0.5,0-0.8-0.4-0.8-0.8c0-0.4,0.2-0.7,0.7-0.8c0,0,1.2-0.5,3.1,0
				c0.5,0.1,0.8,0.4,0.8,0.8C29.8,30.1,29.4,30.5,29,30.5z M30.1,25.1c-0.4,0-0.7-0.3-0.7-0.7c0-0.4,0.3-0.7,0.7-0.7
				c0.4,0,0.7,0.3,0.7,0.7C30.8,24.8,30.5,25.1,30.1,25.1z"/>
		</g>
	</g>
</g>
</svg>
