<svg xmlns="http://www.w3.org/2000/svg" viewBox="0 0 337.14 448.35"><defs><style>.cls-1{fill:#1f1270;}</style></defs><title>lsd_mark_1</title><g id="Layer_2" data-name="Layer 2"><g id="Layer_2-2" data-name="Layer 2"><path class="cls-1" d="M16.55,31.28C-14.76,46,4.9,27.69,22.05,17.35,47,2.32,75.63,3,91.63,3c11,0,18.82,12.14,17,24-1.94,12.7-7.16,20.7-12.43,26.35-10.92,11.7-22.43,15.27-13,2,3-4.17,6.72-8.35,6.43-15.35C88.63,16,30.14,24.91,16.55,31.28Z"/><path class="cls-1" d="M229.26,28c3.37,17.44,8.31,23.07,14.22,31.59,3.07,4.41,10.16,10.55,4.48-4.37C242.76,41.55,243.52,32.82,260,27c18.94-6.63,36-5.45,58.59,2,22.17,7.27,23,4,10-6C292-5.16,262.72-1.93,247.72,4.07,235.39,9,226.42,13.31,229.26,28Z"/><path class="cls-1" d="M83.65,108.72c54.22-34.38,133.06-31,177.81,2.61,13,9.78,7.81,22.25-3.55,19.88-15.82-3.29-66.3-3.31-79.08,16.81-6.21,9.77-9.24,14.68-17.52-.47-10.53-19.26-49-26.28-70.79-18.7C72.56,135.09,73.94,114.88,83.65,108.72Z"/><path class="cls-1" d="M168.06,179.06c.32-10.29,4.75-7.38,5-.52s2.53,17.26,6.33,22.14c4.37,5.61,10.93,10.53,15.81,13.71,5.28,3.42,43.16,32,48.38,35.89s11.24,5.82,24.11,2C285.07,247,316,220.8,321.13,206.19c12.16-34.31,6.21,1.21,4,11.2-3.46,15.92-33.37,38.76-36.62,42s-9.13,13-11.08,27.36-2,30.63-3.91,38.45-4.82,21-14.55,30.84c-31.28,31.71-46,36.05-70.37,51.25-3.54,2.22-15.1,13.64-20,18.68-13.47,13.9-8.26,37.8-16.51,8.26-3.35-12-22.54-22.74,9.12-27.8,10.86-1.74,41.2-16.52,58.21-30,18.68-14.77,39.09-27.36,34.53-78.62-1.35-15.15-14-29.8-21.07-35.19C199.5,237,131.3,236.6,94.37,259.41c-14.64,9-24,17.24-21.5,30,3.26,16.29,7.17,36.7,13.69,46.26,7.89,11.57,37.79,38.66,61.68,41.27,6.53.71,12,2.93,2.17,3.91-4.34.43-17-2.14-21.28-3.91-5.22-2.17-12.17-4.78-16.08-7.39-8.06-5.37-24.41-19.18-30-23.89s-10.86-13.9-13.9-24.76c-4.86-17.35-20-50.82-30.84-61.25-4.33-4.16-22.16-27.36-25.63-39.53-3.07-10.74-5.21-38.66,4.78-10.86,3.74,10.43,10,17.91,21.28,29.54,13,13.47,32.37,14.34,46,9.12s50-28,59.08-33.88,14.64-8.34,19.11-15.64C166,193.56,167.8,187.5,168.06,179.06Z"/></g></g></svg>