<svg xmlns="http://www.w3.org/2000/svg" viewBox="0 0 320.58 499.33"><defs><style>.cls-1{fill:#fff;}.cls-2{fill:#1f1270;}</style></defs><title>lsd_banner-mark_1</title><g id="Layer_2" data-name="Layer 2"><g id="Layer_3" data-name="Layer 3"><path class="cls-1" d="M306.55,424,174.58,496a27,27,0,0,1-25.64.1L14.22,424A26.93,26.93,0,0,1,0,400.2V0H320.58V400.35A26.93,26.93,0,0,1,306.55,424Z"/><path class="cls-2" d="M93,216c-14,6.57-5.22-1.6,2.46-6.23,11.16-6.73,24-6.43,31.15-6.43,4.92,0,8.42,5.44,7.61,10.75a21.23,21.23,0,0,1-5.57,11.79c-4.89,5.24-10,6.84-5.82.9,1.33-1.87,3-3.74,2.88-6.87C125.26,209.15,99.08,213.14,93,216Z"/><path class="cls-2" d="M188.21,214.52c1.52,7.81,3.72,10.33,6.37,14.14,1.37,2,4.55,4.72,2-1.95-2.33-6.12-2-10,5.4-12.62,8.48-3,16.11-2.43,26.23.88,9.92,3.25,10.3,1.79,4.48-2.68-16.4-12.61-29.5-11.16-36.22-8.48C191,206,186.94,208,188.21,214.52Z"/><path class="cls-2" d="M123,250.66c24.27-15.39,59.57-13.88,79.6,1.16,5.83,4.39,3.5,10-1.59,8.91-7.08-1.48-29.68-1.49-35.4,7.52-2.78,4.37-4.13,6.57-7.84-.21-4.72-8.62-21.94-11.76-31.69-8.37C118.07,262.46,118.69,253.41,123,250.66Z"/><path class="cls-2" d="M160.82,282.15c.14-4.61,2.12-3.31,2.24-.24s1.14,7.73,2.83,9.91A30.15,30.15,0,0,0,173,298c2.36,1.53,19.33,14.32,21.66,16.07s5,2.6,10.79.87c7.78-2.33,21.6-14.07,23.92-20.61,5.44-15.36,2.78.54,1.81,5-1.55,7.13-14.94,17.35-16.4,18.81s-4.08,5.84-4.95,12.25-.88,13.71-1.75,17.21-2.16,9.39-6.52,13.81c-14,14.19-20.61,16.14-31.5,22.94-1.58,1-6.76,6.11-8.94,8.36-6,6.23-3.7,16.92-7.39,3.7-1.5-5.37-10.09-10.18,4.08-12.45,4.86-.77,18.44-7.39,26.06-13.41,8.36-6.61,17.5-12.25,15.46-35.2-.61-6.78-6.29-13.34-9.44-15.75-15-11.47-45.5-11.67-62-1.46-6.55,4.05-10.76,7.72-9.62,13.42,1.46,7.29,3.21,16.43,6.12,20.71,3.54,5.18,16.92,17.3,27.62,18.47,2.92.32,5.36,1.31,1,1.75-1.95.2-7.63-1-9.53-1.75a50.3,50.3,0,0,1-7.19-3.3c-3.61-2.41-10.93-8.59-13.42-10.7s-4.86-6.22-6.22-11.08c-2.18-7.77-9-22.75-13.81-27.42-1.94-1.86-9.92-12.25-11.47-17.7-1.38-4.8-2.34-17.3,2.14-4.86,1.67,4.67,4.49,8,9.53,13.23,5.83,6,14.48,6.41,20.61,4.08s22.36-12.54,26.44-15.17,6.56-3.73,8.56-7A17,17,0,0,0,160.82,282.15Z"/></g></g></svg>